<mxfile host="Electron" modified="2024-04-12T09:22:40.773Z" agent="Mozilla/5.0 (Windows NT 10.0; Win64; x64) AppleWebKit/537.36 (KHTML, like Gecko) draw.io/22.1.21 Chrome/120.0.6099.109 Electron/28.1.0 Safari/537.36" etag="Nx3S-ugpw1Ipt8xYTMhs" version="22.1.21" type="device">
  <diagram id="C5RBs43oDa-KdzZeNtuy" name="Page-1">
    <mxGraphModel dx="4143" dy="2809" grid="1" gridSize="10" guides="1" tooltips="1" connect="1" arrows="1" fold="1" page="1" pageScale="1" pageWidth="827" pageHeight="1169" math="0" shadow="0">
      <root>
        <mxCell id="WIyWlLk6GJQsqaUBKTNV-0" />
        <mxCell id="WIyWlLk6GJQsqaUBKTNV-1" parent="WIyWlLk6GJQsqaUBKTNV-0" />
        <mxCell id="RiNWvwrOn4WA7jR9oIVd-15" value="" style="rounded=0;whiteSpace=wrap;html=1;fillColor=#cce5ff;strokeColor=#36393d;" vertex="1" parent="WIyWlLk6GJQsqaUBKTNV-1">
          <mxGeometry x="-90" y="355" width="1110" height="230" as="geometry" />
        </mxCell>
        <mxCell id="RiNWvwrOn4WA7jR9oIVd-14" value="" style="rounded=0;whiteSpace=wrap;html=1;fillColor=#ffcc99;strokeColor=#36393d;" vertex="1" parent="WIyWlLk6GJQsqaUBKTNV-1">
          <mxGeometry x="-90" y="-750" width="1110" height="1060" as="geometry" />
        </mxCell>
        <mxCell id="zkfFHV4jXpPFQw0GAbJ--0" value="Command Center Class&#xa;" style="swimlane;fontStyle=2;align=center;verticalAlign=top;childLayout=stackLayout;horizontal=1;startSize=26;horizontalStack=0;resizeParent=1;resizeLast=0;collapsible=1;marginBottom=0;rounded=0;shadow=0;strokeWidth=1;" parent="WIyWlLk6GJQsqaUBKTNV-1" vertex="1">
          <mxGeometry x="10" y="62" width="160" height="216" as="geometry">
            <mxRectangle x="230" y="140" width="160" height="26" as="alternateBounds" />
          </mxGeometry>
        </mxCell>
        <mxCell id="P1eeQ9Wr-xnPDs2RPuCh-15" value="start_command_center" style="text;align=left;verticalAlign=top;spacingLeft=4;spacingRight=4;overflow=hidden;rotatable=0;points=[[0,0.5],[1,0.5]];portConstraint=eastwest;rounded=0;shadow=0;html=0;fillColor=default;" parent="zkfFHV4jXpPFQw0GAbJ--0" vertex="1">
          <mxGeometry y="26" width="160" height="26" as="geometry" />
        </mxCell>
        <mxCell id="zkfFHV4jXpPFQw0GAbJ--1" value="create_database" style="text;align=left;verticalAlign=top;spacingLeft=4;spacingRight=4;overflow=hidden;rotatable=0;points=[[0,0.5],[1,0.5]];portConstraint=eastwest;fillColor=default;" parent="zkfFHV4jXpPFQw0GAbJ--0" vertex="1">
          <mxGeometry y="52" width="160" height="26" as="geometry" />
        </mxCell>
        <mxCell id="zkfFHV4jXpPFQw0GAbJ--2" value="register_agents" style="text;align=left;verticalAlign=top;spacingLeft=4;spacingRight=4;overflow=hidden;rotatable=0;points=[[0,0.5],[1,0.5]];portConstraint=eastwest;rounded=0;shadow=0;html=0;fillColor=default;" parent="zkfFHV4jXpPFQw0GAbJ--0" vertex="1">
          <mxGeometry y="78" width="160" height="26" as="geometry" />
        </mxCell>
        <mxCell id="zkfFHV4jXpPFQw0GAbJ--4" value="" style="line;html=1;strokeWidth=1;align=left;verticalAlign=middle;spacingTop=-1;spacingLeft=3;spacingRight=3;rotatable=0;labelPosition=right;points=[];portConstraint=eastwest;" parent="zkfFHV4jXpPFQw0GAbJ--0" vertex="1">
          <mxGeometry y="104" width="160" height="8" as="geometry" />
        </mxCell>
        <mxCell id="P1eeQ9Wr-xnPDs2RPuCh-12" value="_add_agent_to_database" style="text;align=left;verticalAlign=top;spacingLeft=4;spacingRight=4;overflow=hidden;rotatable=0;points=[[0,0.5],[1,0.5]];portConstraint=eastwest;rounded=0;shadow=0;html=0;fillColor=default;" parent="zkfFHV4jXpPFQw0GAbJ--0" vertex="1">
          <mxGeometry y="112" width="160" height="26" as="geometry" />
        </mxCell>
        <mxCell id="P1eeQ9Wr-xnPDs2RPuCh-13" value="_update_agent_information" style="text;align=left;verticalAlign=top;spacingLeft=4;spacingRight=4;overflow=hidden;rotatable=0;points=[[0,0.5],[1,0.5]];portConstraint=eastwest;fillColor=default;" parent="zkfFHV4jXpPFQw0GAbJ--0" vertex="1">
          <mxGeometry y="138" width="160" height="26" as="geometry" />
        </mxCell>
        <mxCell id="zkfFHV4jXpPFQw0GAbJ--5" value="_update_agent_last_seen" style="text;align=left;verticalAlign=top;spacingLeft=4;spacingRight=4;overflow=hidden;rotatable=0;points=[[0,0.5],[1,0.5]];portConstraint=eastwest;fillColor=default;" parent="zkfFHV4jXpPFQw0GAbJ--0" vertex="1">
          <mxGeometry y="164" width="160" height="26" as="geometry" />
        </mxCell>
        <mxCell id="P1eeQ9Wr-xnPDs2RPuCh-14" value="_listen" style="text;align=left;verticalAlign=top;spacingLeft=4;spacingRight=4;overflow=hidden;rotatable=0;points=[[0,0.5],[1,0.5]];portConstraint=eastwest;fillColor=default;" parent="zkfFHV4jXpPFQw0GAbJ--0" vertex="1">
          <mxGeometry y="190" width="160" height="26" as="geometry" />
        </mxCell>
        <mxCell id="P1eeQ9Wr-xnPDs2RPuCh-0" value="Agent&#xa;" style="swimlane;fontStyle=2;align=center;verticalAlign=top;childLayout=stackLayout;horizontal=1;startSize=26;horizontalStack=0;resizeParent=1;resizeLast=0;collapsible=1;marginBottom=0;rounded=0;shadow=0;strokeWidth=1;" parent="WIyWlLk6GJQsqaUBKTNV-1" vertex="1">
          <mxGeometry x="70" y="380" width="160" height="148" as="geometry">
            <mxRectangle x="230" y="140" width="160" height="26" as="alternateBounds" />
          </mxGeometry>
        </mxCell>
        <mxCell id="P1eeQ9Wr-xnPDs2RPuCh-1" value="listen (attack function)" style="text;align=left;verticalAlign=top;spacingLeft=4;spacingRight=4;overflow=hidden;rotatable=0;points=[[0,0.5],[1,0.5]];portConstraint=eastwest;fillColor=default;" parent="P1eeQ9Wr-xnPDs2RPuCh-0" vertex="1">
          <mxGeometry y="26" width="160" height="26" as="geometry" />
        </mxCell>
        <mxCell id="P1eeQ9Wr-xnPDs2RPuCh-2" value="RTT collector&#xa;" style="text;align=left;verticalAlign=top;spacingLeft=4;spacingRight=4;overflow=hidden;rotatable=0;points=[[0,0.5],[1,0.5]];portConstraint=eastwest;rounded=0;shadow=0;html=0;fillColor=default;" parent="P1eeQ9Wr-xnPDs2RPuCh-0" vertex="1">
          <mxGeometry y="52" width="160" height="26" as="geometry" />
        </mxCell>
        <mxCell id="RiNWvwrOn4WA7jR9oIVd-0" value="Heartbeat" style="text;align=left;verticalAlign=top;spacingLeft=4;spacingRight=4;overflow=hidden;rotatable=0;points=[[0,0.5],[1,0.5]];portConstraint=eastwest;rounded=0;shadow=0;html=0;fillColor=default;" vertex="1" parent="P1eeQ9Wr-xnPDs2RPuCh-0">
          <mxGeometry y="78" width="160" height="62" as="geometry" />
        </mxCell>
        <mxCell id="P1eeQ9Wr-xnPDs2RPuCh-4" value="" style="line;html=1;strokeWidth=1;align=left;verticalAlign=middle;spacingTop=-1;spacingLeft=3;spacingRight=3;rotatable=0;labelPosition=right;points=[];portConstraint=eastwest;" parent="P1eeQ9Wr-xnPDs2RPuCh-0" vertex="1">
          <mxGeometry y="140" width="160" height="8" as="geometry" />
        </mxCell>
        <mxCell id="P1eeQ9Wr-xnPDs2RPuCh-6" value="GUI Script (entry)" style="swimlane;fontStyle=2;align=center;verticalAlign=top;childLayout=stackLayout;horizontal=1;startSize=26;horizontalStack=0;resizeParent=1;resizeLast=0;collapsible=1;marginBottom=0;rounded=0;shadow=0;strokeWidth=1;" parent="WIyWlLk6GJQsqaUBKTNV-1" vertex="1">
          <mxGeometry x="40" y="-300" width="160" height="148" as="geometry">
            <mxRectangle x="230" y="140" width="160" height="26" as="alternateBounds" />
          </mxGeometry>
        </mxCell>
        <mxCell id="RiNWvwrOn4WA7jR9oIVd-4" style="edgeStyle=orthogonalEdgeStyle;rounded=0;orthogonalLoop=1;jettySize=auto;html=1;" edge="1" parent="P1eeQ9Wr-xnPDs2RPuCh-6" source="P1eeQ9Wr-xnPDs2RPuCh-7">
          <mxGeometry relative="1" as="geometry">
            <mxPoint x="250" y="-50.00000000000023" as="targetPoint" />
          </mxGeometry>
        </mxCell>
        <mxCell id="P1eeQ9Wr-xnPDs2RPuCh-7" value="Flask Web Server" style="text;align=left;verticalAlign=top;spacingLeft=4;spacingRight=4;overflow=hidden;rotatable=0;points=[[0,0.5],[1,0.5]];portConstraint=eastwest;fillColor=default;" parent="P1eeQ9Wr-xnPDs2RPuCh-6" vertex="1">
          <mxGeometry y="26" width="160" height="26" as="geometry" />
        </mxCell>
        <mxCell id="P1eeQ9Wr-xnPDs2RPuCh-9" value="Main start function" style="text;align=left;verticalAlign=top;spacingLeft=4;spacingRight=4;overflow=hidden;rotatable=0;points=[[0,0.5],[1,0.5]];portConstraint=eastwest;rounded=0;shadow=0;html=0;glass=0;fillColor=default;" parent="P1eeQ9Wr-xnPDs2RPuCh-6" vertex="1">
          <mxGeometry y="52" width="160" height="88" as="geometry" />
        </mxCell>
        <mxCell id="P1eeQ9Wr-xnPDs2RPuCh-10" value="" style="line;html=1;strokeWidth=1;align=left;verticalAlign=middle;spacingTop=-1;spacingLeft=3;spacingRight=3;rotatable=0;labelPosition=right;points=[];portConstraint=eastwest;fillColor=default;" parent="P1eeQ9Wr-xnPDs2RPuCh-6" vertex="1">
          <mxGeometry y="140" width="160" height="8" as="geometry" />
        </mxCell>
        <mxCell id="P1eeQ9Wr-xnPDs2RPuCh-16" style="edgeStyle=orthogonalEdgeStyle;rounded=0;orthogonalLoop=1;jettySize=auto;html=1;entryX=0;entryY=0.5;entryDx=0;entryDy=0;" parent="WIyWlLk6GJQsqaUBKTNV-1" source="P1eeQ9Wr-xnPDs2RPuCh-15" target="P1eeQ9Wr-xnPDs2RPuCh-18" edge="1">
          <mxGeometry relative="1" as="geometry">
            <mxPoint x="220" y="101" as="targetPoint" />
          </mxGeometry>
        </mxCell>
        <mxCell id="P1eeQ9Wr-xnPDs2RPuCh-21" value="" style="edgeStyle=orthogonalEdgeStyle;rounded=0;orthogonalLoop=1;jettySize=auto;html=1;" parent="WIyWlLk6GJQsqaUBKTNV-1" source="P1eeQ9Wr-xnPDs2RPuCh-18" target="P1eeQ9Wr-xnPDs2RPuCh-20" edge="1">
          <mxGeometry relative="1" as="geometry" />
        </mxCell>
        <mxCell id="P1eeQ9Wr-xnPDs2RPuCh-18" value="Start listening on :9191" style="rounded=1;whiteSpace=wrap;html=1;" parent="WIyWlLk6GJQsqaUBKTNV-1" vertex="1">
          <mxGeometry x="230" y="20" width="120" height="50" as="geometry" />
        </mxCell>
        <mxCell id="P1eeQ9Wr-xnPDs2RPuCh-23" value="" style="edgeStyle=orthogonalEdgeStyle;rounded=0;orthogonalLoop=1;jettySize=auto;html=1;" parent="WIyWlLk6GJQsqaUBKTNV-1" source="P1eeQ9Wr-xnPDs2RPuCh-20" target="P1eeQ9Wr-xnPDs2RPuCh-22" edge="1">
          <mxGeometry relative="1" as="geometry" />
        </mxCell>
        <mxCell id="P1eeQ9Wr-xnPDs2RPuCh-20" value="Receive Message" style="whiteSpace=wrap;html=1;rounded=1;" parent="WIyWlLk6GJQsqaUBKTNV-1" vertex="1">
          <mxGeometry x="430" y="15" width="120" height="60" as="geometry" />
        </mxCell>
        <mxCell id="P1eeQ9Wr-xnPDs2RPuCh-25" value="" style="edgeStyle=orthogonalEdgeStyle;rounded=0;orthogonalLoop=1;jettySize=auto;html=1;" parent="WIyWlLk6GJQsqaUBKTNV-1" source="P1eeQ9Wr-xnPDs2RPuCh-22" target="P1eeQ9Wr-xnPDs2RPuCh-24" edge="1">
          <mxGeometry relative="1" as="geometry" />
        </mxCell>
        <mxCell id="P1eeQ9Wr-xnPDs2RPuCh-27" value="" style="edgeStyle=orthogonalEdgeStyle;rounded=0;orthogonalLoop=1;jettySize=auto;html=1;" parent="WIyWlLk6GJQsqaUBKTNV-1" source="P1eeQ9Wr-xnPDs2RPuCh-22" target="P1eeQ9Wr-xnPDs2RPuCh-26" edge="1">
          <mxGeometry relative="1" as="geometry" />
        </mxCell>
        <mxCell id="P1eeQ9Wr-xnPDs2RPuCh-22" value="[HEARTBEAT] message" style="whiteSpace=wrap;html=1;rounded=1;" parent="WIyWlLk6GJQsqaUBKTNV-1" vertex="1">
          <mxGeometry x="630" y="15" width="120" height="60" as="geometry" />
        </mxCell>
        <mxCell id="P1eeQ9Wr-xnPDs2RPuCh-31" value="" style="edgeStyle=orthogonalEdgeStyle;rounded=0;orthogonalLoop=1;jettySize=auto;html=1;" parent="WIyWlLk6GJQsqaUBKTNV-1" source="P1eeQ9Wr-xnPDs2RPuCh-24" target="P1eeQ9Wr-xnPDs2RPuCh-30" edge="1">
          <mxGeometry relative="1" as="geometry" />
        </mxCell>
        <mxCell id="P1eeQ9Wr-xnPDs2RPuCh-24" value="[REGISTRATION] message" style="whiteSpace=wrap;html=1;rounded=1;" parent="WIyWlLk6GJQsqaUBKTNV-1" vertex="1">
          <mxGeometry x="830" y="15" width="120" height="60" as="geometry" />
        </mxCell>
        <mxCell id="P1eeQ9Wr-xnPDs2RPuCh-29" value="" style="edgeStyle=orthogonalEdgeStyle;rounded=0;orthogonalLoop=1;jettySize=auto;html=1;" parent="WIyWlLk6GJQsqaUBKTNV-1" source="P1eeQ9Wr-xnPDs2RPuCh-26" target="P1eeQ9Wr-xnPDs2RPuCh-28" edge="1">
          <mxGeometry relative="1" as="geometry" />
        </mxCell>
        <mxCell id="P1eeQ9Wr-xnPDs2RPuCh-26" value="YES" style="rhombus;whiteSpace=wrap;html=1;rounded=1;" parent="WIyWlLk6GJQsqaUBKTNV-1" vertex="1">
          <mxGeometry x="650" y="-135" width="80" height="80" as="geometry" />
        </mxCell>
        <mxCell id="P1eeQ9Wr-xnPDs2RPuCh-28" value="_update_agent_last_seen" style="whiteSpace=wrap;html=1;rounded=1;" parent="WIyWlLk6GJQsqaUBKTNV-1" vertex="1">
          <mxGeometry x="595" y="-285" width="190" height="60" as="geometry" />
        </mxCell>
        <mxCell id="P1eeQ9Wr-xnPDs2RPuCh-33" value="" style="edgeStyle=orthogonalEdgeStyle;rounded=0;orthogonalLoop=1;jettySize=auto;html=1;" parent="WIyWlLk6GJQsqaUBKTNV-1" source="P1eeQ9Wr-xnPDs2RPuCh-30" target="P1eeQ9Wr-xnPDs2RPuCh-32" edge="1">
          <mxGeometry relative="1" as="geometry" />
        </mxCell>
        <mxCell id="P1eeQ9Wr-xnPDs2RPuCh-30" value="YES" style="rhombus;whiteSpace=wrap;html=1;rounded=1;" parent="WIyWlLk6GJQsqaUBKTNV-1" vertex="1">
          <mxGeometry x="850" y="-135" width="80" height="80" as="geometry" />
        </mxCell>
        <mxCell id="P1eeQ9Wr-xnPDs2RPuCh-32" value="_add_agent_to_databse" style="whiteSpace=wrap;html=1;rounded=1;" parent="WIyWlLk6GJQsqaUBKTNV-1" vertex="1">
          <mxGeometry x="805" y="-285" width="170" height="60" as="geometry" />
        </mxCell>
        <mxCell id="P1eeQ9Wr-xnPDs2RPuCh-42" value="Manually Register Agents from Command Center" style="rounded=1;whiteSpace=wrap;html=1;" parent="WIyWlLk6GJQsqaUBKTNV-1" vertex="1">
          <mxGeometry x="230" y="128" width="120" height="50" as="geometry" />
        </mxCell>
        <mxCell id="P1eeQ9Wr-xnPDs2RPuCh-43" style="edgeStyle=orthogonalEdgeStyle;rounded=0;orthogonalLoop=1;jettySize=auto;html=1;" parent="WIyWlLk6GJQsqaUBKTNV-1" source="zkfFHV4jXpPFQw0GAbJ--2" target="P1eeQ9Wr-xnPDs2RPuCh-42" edge="1">
          <mxGeometry relative="1" as="geometry" />
        </mxCell>
        <mxCell id="RiNWvwrOn4WA7jR9oIVd-1" style="edgeStyle=orthogonalEdgeStyle;rounded=0;orthogonalLoop=1;jettySize=auto;html=1;entryX=0.5;entryY=1;entryDx=0;entryDy=0;exitX=1;exitY=0.5;exitDx=0;exitDy=0;" edge="1" parent="WIyWlLk6GJQsqaUBKTNV-1" source="RiNWvwrOn4WA7jR9oIVd-0">
          <mxGeometry relative="1" as="geometry">
            <mxPoint x="690" y="75" as="targetPoint" />
            <mxPoint x="370" y="461" as="sourcePoint" />
          </mxGeometry>
        </mxCell>
        <mxCell id="RiNWvwrOn4WA7jR9oIVd-3" style="edgeStyle=orthogonalEdgeStyle;rounded=0;orthogonalLoop=1;jettySize=auto;html=1;entryX=0;entryY=0.5;entryDx=0;entryDy=0;" edge="1" parent="WIyWlLk6GJQsqaUBKTNV-1" source="P1eeQ9Wr-xnPDs2RPuCh-9" target="P1eeQ9Wr-xnPDs2RPuCh-15">
          <mxGeometry relative="1" as="geometry" />
        </mxCell>
        <mxCell id="RiNWvwrOn4WA7jR9oIVd-6" style="edgeStyle=orthogonalEdgeStyle;rounded=0;orthogonalLoop=1;jettySize=auto;html=1;" edge="1" parent="WIyWlLk6GJQsqaUBKTNV-1" source="RiNWvwrOn4WA7jR9oIVd-5">
          <mxGeometry relative="1" as="geometry">
            <mxPoint x="290" y="-510.0000000000002" as="targetPoint" />
          </mxGeometry>
        </mxCell>
        <mxCell id="RiNWvwrOn4WA7jR9oIVd-9" style="edgeStyle=orthogonalEdgeStyle;rounded=0;orthogonalLoop=1;jettySize=auto;html=1;" edge="1" parent="WIyWlLk6GJQsqaUBKTNV-1" source="RiNWvwrOn4WA7jR9oIVd-5">
          <mxGeometry relative="1" as="geometry">
            <mxPoint x="430" y="-510.0000000000002" as="targetPoint" />
          </mxGeometry>
        </mxCell>
        <mxCell id="RiNWvwrOn4WA7jR9oIVd-5" value="Webserver start" style="whiteSpace=wrap;html=1;rounded=1;" vertex="1" parent="WIyWlLk6GJQsqaUBKTNV-1">
          <mxGeometry x="230" y="-410" width="120" height="60" as="geometry" />
        </mxCell>
        <mxCell id="RiNWvwrOn4WA7jR9oIVd-8" value="Serve website" style="whiteSpace=wrap;html=1;rounded=1;" vertex="1" parent="WIyWlLk6GJQsqaUBKTNV-1">
          <mxGeometry x="230" y="-570" width="120" height="60" as="geometry" />
        </mxCell>
        <mxCell id="RiNWvwrOn4WA7jR9oIVd-11" style="edgeStyle=orthogonalEdgeStyle;rounded=0;orthogonalLoop=1;jettySize=auto;html=1;" edge="1" parent="WIyWlLk6GJQsqaUBKTNV-1" source="RiNWvwrOn4WA7jR9oIVd-10">
          <mxGeometry relative="1" as="geometry">
            <mxPoint x="430" y="-650.0000000000002" as="targetPoint" />
          </mxGeometry>
        </mxCell>
        <mxCell id="RiNWvwrOn4WA7jR9oIVd-10" value="Poll Database" style="whiteSpace=wrap;html=1;rounded=1;" vertex="1" parent="WIyWlLk6GJQsqaUBKTNV-1">
          <mxGeometry x="370" y="-570" width="120" height="60" as="geometry" />
        </mxCell>
        <mxCell id="RiNWvwrOn4WA7jR9oIVd-13" value="Create Agent List w/ Status" style="whiteSpace=wrap;html=1;rounded=1;" vertex="1" parent="WIyWlLk6GJQsqaUBKTNV-1">
          <mxGeometry x="370" y="-710" width="120" height="60" as="geometry" />
        </mxCell>
        <mxCell id="RiNWvwrOn4WA7jR9oIVd-16" value="Agent Container" style="text;html=1;strokeColor=none;fillColor=none;align=center;verticalAlign=middle;whiteSpace=wrap;rounded=0;fontSize=24;fontStyle=1" vertex="1" parent="WIyWlLk6GJQsqaUBKTNV-1">
          <mxGeometry x="-80" y="370" width="150" height="60" as="geometry" />
        </mxCell>
        <mxCell id="RiNWvwrOn4WA7jR9oIVd-17" value="Command Container" style="text;html=1;strokeColor=none;fillColor=none;align=center;verticalAlign=middle;whiteSpace=wrap;rounded=0;fontSize=24;fontStyle=1" vertex="1" parent="WIyWlLk6GJQsqaUBKTNV-1">
          <mxGeometry x="-80" y="-740" width="150" height="60" as="geometry" />
        </mxCell>
      </root>
    </mxGraphModel>
  </diagram>
</mxfile>
